<mxfile host="app.diagrams.net" agent="Mozilla/5.0 (Macintosh; Intel Mac OS X 10_15_7) AppleWebKit/537.36 (KHTML, like Gecko) Chrome/133.0.0.0 Safari/537.36" version="26.0.16">
  <diagram id="diagramId" name="FlujoSaltosMultiples">
    <mxGraphModel dx="1434" dy="767" grid="1" gridSize="10" guides="1" tooltips="1" connect="1" arrows="1" fold="1" page="1" pageScale="1" pageWidth="827" pageHeight="1169" math="0" shadow="0">
      <root>
        <mxCell id="0" />
        <mxCell id="1" parent="0" />
        <mxCell id="2" value="Jugador presiona el botón de salto" style="rounded=1;whiteSpace=wrap;html=1;align=center;verticalAlign=middle;fillColor=#dae8fc;strokeColor=#6c8ebf;" parent="1" vertex="1">
          <mxGeometry x="90" y="60" width="190" height="60" as="geometry" />
        </mxCell>
        <mxCell id="edge2-3" style="endArrow=block;endFill=1;" parent="1" source="2" target="3" edge="1">
          <mxGeometry relative="1" as="geometry" />
        </mxCell>
        <mxCell id="3" value="¿Está en el suelo?" style="rhombus;whiteSpace=wrap;html=1;align=center;verticalAlign=middle;strokeColor=#6c8ebf;fillColor=#ffffff;" parent="1" vertex="1">
          <mxGeometry x="390" y="50" width="160" height="80" as="geometry" />
        </mxCell>
        <mxCell id="edge3-5" value="Sí" style="edgeStyle=elbowEdgeStyle;endArrow=block;endFill=1;fontSize=12;align=center;verticalAlign=middle;labelBackgroundColor=#ffffff;" parent="1" source="3" target="5" edge="1">
          <mxGeometry relative="1" as="geometry">
            <mxPoint x="210" as="sourcePoint" />
          </mxGeometry>
        </mxCell>
        <mxCell id="edge3-4" value="No" style="endArrow=block;endFill=1;fontSize=12;align=center;verticalAlign=middle;labelBackgroundColor=#ffffff;" parent="1" source="3" target="4" edge="1">
          <mxGeometry relative="1" as="geometry" />
        </mxCell>
        <mxCell id="5" value="contadorSaltos = 0" style="rounded=1;whiteSpace=wrap;html=1;align=center;verticalAlign=middle;fillColor=#f5f5f5;strokeColor=#666666;" parent="1" vertex="1">
          <mxGeometry x="605" y="65" width="120" height="50" as="geometry" />
        </mxCell>
        <mxCell id="edge5-4" style="endArrow=block;endFill=1;" parent="1" source="5" target="4" edge="1">
          <mxGeometry relative="1" as="geometry">
            <Array as="points">
              <mxPoint x="500" y="160" />
            </Array>
          </mxGeometry>
        </mxCell>
        <mxCell id="4" value="contadorSaltos &amp;lt; saltosMaximos" style="rhombus;whiteSpace=wrap;html=1;align=center;verticalAlign=middle;strokeColor=#6c8ebf;fillColor=#ffffff;" parent="1" vertex="1">
          <mxGeometry x="370" y="280" width="200" height="130" as="geometry" />
        </mxCell>
        <mxCell id="edge4-6" value="Sí" style="endArrow=block;endFill=1;fontSize=12;align=center;verticalAlign=middle;labelBackgroundColor=#ffffff;" parent="1" source="4" target="6" edge="1">
          <mxGeometry relative="1" as="geometry" />
        </mxCell>
        <mxCell id="edge4-7" value="No" style="endArrow=block;endFill=1;fontSize=12;align=center;verticalAlign=middle;labelBackgroundColor=#ffffff;" parent="1" source="4" target="7" edge="1">
          <mxGeometry relative="1" as="geometry" />
        </mxCell>
        <mxCell id="6" value="Realizar salto" style="rounded=1;whiteSpace=wrap;html=1;align=center;verticalAlign=middle;fillColor=#d5e8d4;strokeColor=#82b366;" parent="1" vertex="1">
          <mxGeometry x="410" y="500" width="120" height="50" as="geometry" />
        </mxCell>
        <mxCell id="7" value="No saltar" style="rounded=1;whiteSpace=wrap;html=1;align=center;verticalAlign=middle;fillColor=#f8cecc;strokeColor=#b85450;" parent="1" vertex="1">
          <mxGeometry x="640" y="320" width="120" height="50" as="geometry" />
        </mxCell>
        <mxCell id="edge6-8" style="endArrow=block;endFill=1;" parent="1" source="6" target="8" edge="1">
          <mxGeometry relative="1" as="geometry" />
        </mxCell>
        <mxCell id="edge7-8" style="endArrow=block;endFill=1;" parent="1" source="7" target="8" edge="1">
          <mxGeometry relative="1" as="geometry">
            <Array as="points">
              <mxPoint x="700" y="620" />
            </Array>
          </mxGeometry>
        </mxCell>
        <mxCell id="8" value="Fin del Proceso" style="ellipse;whiteSpace=wrap;html=1;align=center;verticalAlign=middle;fillColor=#f5f5f5;strokeColor=#666666;" parent="1" vertex="1">
          <mxGeometry x="420" y="590" width="100" height="60" as="geometry" />
        </mxCell>
      </root>
    </mxGraphModel>
  </diagram>
</mxfile>
